<svg width="373" height="266" viewBox="0 0 373 266" fill="none" xmlns="http://www.w3.org/2000/svg">
<path d="M30.4597 251.229C30.4597 259.377 107.044 266.002 201.532 266.002C296.019 266.002 372.604 259.398 372.604 251.229C372.604 243.061 296.019 236.457 201.532 236.457C107.044 236.457 30.4597 243.061 30.4597 251.229Z" fill="#FFF0B4"/>
<path d="M332.832 48.3796C337.957 54.533 339.586 62.423 337.957 69.6698C345.375 69.3911 352.836 72.4142 357.96 78.5676C366.708 89.0733 365.293 104.682 354.766 113.451C344.26 122.198 328.652 120.783 319.883 110.256C316.967 106.74 315.187 102.666 314.48 98.4641L296.684 113.279C293.64 115.809 289.137 115.402 286.586 112.357C284.056 109.313 284.463 104.81 287.508 102.259L305.26 87.4867C301.294 86.0288 297.628 83.5631 294.733 80.0684C285.985 69.5626 287.401 53.9541 297.928 45.1851C308.433 36.4374 324.042 37.8525 332.811 48.3796H332.832ZM331.246 100.801C334.784 105.046 341.066 105.625 345.311 102.088C349.556 98.5499 350.135 92.2679 346.597 88.0227C343.059 83.7775 336.777 83.1987 332.532 86.7363C328.287 90.274 327.708 96.5559 331.246 100.801ZM306.118 70.6132C309.656 74.8584 315.938 75.4373 320.183 71.8996C324.428 68.362 325.007 62.08 321.469 57.8348C317.931 53.5896 311.649 53.0108 307.404 56.5484C303.159 60.086 302.58 66.368 306.118 70.6132Z" fill="#4CB08A"/>
<path d="M274.406 74.7566C277.172 87.878 240.423 129.043 224.6 140.685C208.777 152.306 151.81 165.17 133.307 166.628C114.804 168.086 126.639 122.547 126.639 122.547C126.639 122.547 266.945 39.3587 274.406 74.7566Z" fill="#CCE8DE"/>
<path d="M179.596 253.862C171.684 215.119 159.442 194.837 154.918 184.824C148.85 171.381 151.445 160.575 163.451 151.871C175.458 143.166 186.928 133.582 211.199 116.623C227.043 105.56 256.759 100.414 275.519 98.1842C286.261 96.8978 296.81 102.022 302.277 111.349C323.867 148.161 331.843 197.11 338.79 241.684C339.476 246.079 339.862 250.11 340.033 253.883H179.596V253.862Z" fill="#CCE8DE"/>
<path d="M311.239 253.862C311.025 251.482 310.746 249.017 310.338 246.401C303.413 201.826 295.416 152.9 273.826 116.065C268.38 106.782 257.917 101.679 247.24 102.901C257.381 100.628 267.458 99.1276 275.519 98.1842C286.261 96.8978 296.81 102.022 302.277 111.349C323.867 148.161 331.843 197.11 338.79 241.684C339.476 246.079 339.862 250.11 340.033 253.883H311.26L311.239 253.862Z" fill="#E5F4EE"/>
<path d="M2.22398 81.5713C3.70336 80.242 5.63299 79.7274 7.45541 79.9847C10.0068 76.297 14.2734 71.2157 20.7913 66.606C31.5757 58.9518 50.8076 51.2333 81.1885 57.8155C82.3248 58.0513 83.0324 59.1662 82.7965 60.3026C82.6893 60.7528 82.4749 61.1387 82.1533 61.4175C81.6816 61.8463 80.9955 62.0607 80.3094 61.9106C57.5399 56.9793 37.8577 59.7451 23.3855 69.9078C17.5323 74.0243 13.6088 78.5911 11.2075 81.9572C11.2503 82.0001 11.3146 82.043 11.3575 82.1073C13.7374 84.7659 13.523 88.861 10.8644 91.2409C8.20581 93.6207 4.11073 93.4063 1.73086 90.7478C-0.649006 88.0892 -0.434613 83.9941 2.22398 81.6142V81.5713Z" fill="#66BB9B"/>
<path d="M114.698 158.776C125.161 165.509 134.145 173.763 150.932 155.818C167.72 137.872 189.589 106.827 223.143 96.9428C256.719 87.0588 287.292 83.1352 268.854 64.375C250.415 45.6147 231.741 24.6247 219.112 13.926C206.505 3.22732 182.106 -5.97055 144.179 5.37136C106.251 16.6918 71.496 55.2629 68.6874 80.1765C64.8924 114.031 104.214 152.066 114.677 158.819L114.698 158.776Z" fill="#CCE8DE"/>
<path d="M247.393 78.0112C228.954 59.251 210.28 38.261 197.652 27.5623C185.045 16.8636 160.646 7.66571 122.718 19.0076C117.422 20.5942 112.191 22.7168 107.109 25.2467C118.301 16.4777 131.037 9.29517 144.18 5.3716C182.107 -5.94887 206.506 3.22757 219.113 13.9263C231.72 24.625 250.416 45.615 268.855 64.3752C281.44 77.1751 271.17 83.0711 252.71 88.667C252.346 84.9579 250.673 81.3559 247.393 78.0112Z" fill="#E5F4EE"/>
<path d="M162.575 25.6939C190.083 23.2068 217.119 59.4838 210.366 77.6865C203.612 95.8679 195.186 88.1708 164.183 121.382C133.181 154.593 125.698 157.852 111.033 142.393C96.3677 126.935 80.0946 115.443 85.7548 94.3671C91.415 73.2698 125.505 29.06 162.575 25.6939Z" fill="#E5F4EE"/>
<path d="M85.734 94.3664C91.0941 74.3841 122.011 33.6476 156.766 26.5723C124.477 36.6921 96.7114 73.9981 91.6301 92.8441C85.9698 113.941 102.243 125.412 116.908 140.87C122.526 146.788 127.092 149.961 132.345 149.747C124.305 153.391 118.623 150.433 111.012 142.393C96.3469 126.934 80.0738 115.442 85.734 94.3664Z" fill="#CCE8DE"/>
<path d="M288.601 125.476C289.78 128.628 292.91 130.686 296.341 130.515C306.332 130.065 326.786 132.23 334.504 155.965C345.868 190.848 296.169 211.645 253.246 208.45L250.18 221.357C250.18 221.357 303.995 225.796 334.89 198.631C365.807 171.466 348.676 129.357 320.161 119.409C310.062 115.871 301.786 115.078 295.869 115.228C290.466 115.357 286.757 120.567 288.601 125.498V125.476Z" fill="#99D2BC"/>
<path d="M153.358 62.1435C153.293 63.6658 154.494 64.9736 156.016 65.0379L173.126 65.7669C174.648 65.8312 175.956 64.6306 176.02 63.1083C176.084 61.586 174.884 60.2782 173.361 60.2139L156.252 59.4849C154.73 59.4206 153.422 60.6212 153.358 62.1435Z" fill="#66BB9B"/>
<path d="M164.205 73.9578C165.727 74.0221 167.035 72.8215 167.1 71.2992L167.829 54.1899C167.893 52.6676 166.692 51.3598 165.17 51.2954C163.648 51.2311 162.34 52.4318 162.276 53.954L161.547 71.0634C161.482 72.5856 162.683 73.8935 164.205 73.9578Z" fill="#66BB9B"/>
<path d="M107.111 104.597C107.046 106.119 108.247 107.427 109.769 107.491L126.878 108.22C128.401 108.284 129.709 107.084 129.773 105.561C129.837 104.039 128.637 102.731 127.114 102.667L110.005 101.938C108.483 101.874 107.175 103.074 107.111 104.597Z" fill="#66BB9B"/>
<path d="M117.96 116.411C119.482 116.475 120.79 115.275 120.855 113.752L121.583 96.643C121.648 95.1208 120.447 93.8129 118.925 93.7486C117.403 93.6842 116.095 94.8849 116.03 96.4072L115.301 113.516C115.237 115.039 116.438 116.347 117.96 116.411Z" fill="#66BB9B"/>
<path d="M242.59 176.184L232.556 240.141C231.784 245.222 226.96 248.652 221.9 247.688C216.861 246.723 213.624 241.77 214.76 236.753L228.932 173.59C219.992 168.873 214.782 158.732 216.775 148.291C218.04 141.687 221.921 136.263 227.153 132.896L231.869 133.797L228.825 149.749L239.009 158.968L251.466 154.058L254.51 138.106L259.227 139.007C262.851 144.067 264.48 150.542 263.215 157.145C261.221 167.587 252.645 175.112 242.611 176.206L242.59 176.184ZM223.358 241.449C224.987 241.749 226.552 240.698 226.852 239.069C227.153 237.439 226.102 235.874 224.473 235.574C222.843 235.274 221.299 236.324 220.978 237.954C220.678 239.583 221.728 241.127 223.358 241.449Z" fill="#4CB08A"/>
<path d="M222.35 189.438C222.35 189.438 237.315 192.375 246.492 194.69C259.356 197.949 256.955 225.521 244.541 224.943C228.032 224.171 210.043 216.216 210.043 216.216L212.295 207.94L240.531 213.193V203.824L221.3 196.963L222.372 189.459L222.35 189.438Z" fill="#99D2BC"/>
<path d="M136.825 214.331H140.985C141.714 211.608 142.829 209.056 144.265 206.719L141.242 203.696C140.878 203.332 140.878 202.753 141.242 202.389L150.226 193.405C150.59 193.041 151.169 193.041 151.533 193.405L154.75 196.621C157.044 195.313 159.531 194.327 162.168 193.684V188.988C162.168 188.474 162.575 188.066 163.09 188.066H175.782C176.297 188.066 176.704 188.474 176.704 188.988V193.898C179.234 194.584 181.614 195.613 183.801 196.921L187.339 193.384C187.703 193.019 188.282 193.019 188.647 193.384L197.63 202.367C197.995 202.732 197.995 203.31 197.63 203.675L194.05 207.255C195.336 209.442 196.322 211.822 197.008 214.309H202.025C202.54 214.309 202.947 214.717 202.947 215.231V227.924C202.947 228.438 202.54 228.846 202.025 228.846H197.137C196.494 231.419 195.507 233.863 194.243 236.114L197.609 239.48C197.973 239.845 197.973 240.424 197.609 240.788L188.625 249.772C188.261 250.136 187.682 250.136 187.317 249.772L184.144 246.598C181.85 248.013 179.342 249.107 176.683 249.836V254.188C176.683 254.703 176.276 255.11 175.761 255.11H163.068C162.554 255.11 162.146 254.703 162.146 254.188V250.05C159.381 249.386 156.765 248.314 154.364 246.92L151.512 249.793C151.148 250.157 150.569 250.157 150.204 249.793L141.221 240.809C140.856 240.445 140.856 239.866 141.221 239.502L144.029 236.693C142.593 234.292 141.499 231.654 140.813 228.867H136.804C136.289 228.867 135.882 228.46 135.882 227.945V215.253C135.882 214.738 136.289 214.331 136.804 214.331H136.825ZM184.487 232.426C194.736 214.524 176.361 196.171 158.48 206.419C156.422 207.598 154.707 209.335 153.527 211.372C143.279 229.275 161.632 247.649 179.534 237.379C181.593 236.2 183.308 234.463 184.487 232.426Z" fill="#4CB08A"/>
<path d="M84.618 239.994H122.524V254.016H84.618V239.994Z" fill="#4CB08A"/>
<path d="M103.786 200.756H103.336C99.9055 200.756 97.1183 203.543 97.1183 206.974V242.221H109.982V206.974C109.982 203.543 107.195 200.756 103.765 200.756H103.786Z" fill="#4CB08A"/>
<path d="M97.1183 213.901L110.004 209.805V206.396L97.1183 210.47V213.901Z" fill="#D1D3D2"/>
<path d="M97.1593 225.645L110.023 221.55V218.141L97.1593 222.236V225.645Z" fill="#D1D3D2"/>
<path d="M97.1183 236.992L110.004 232.897V229.488L97.1183 233.562V236.992Z" fill="#D1D3D2"/>
</svg>
