<svg width="414" height="482" viewBox="0 0 414 482" fill="none" xmlns="http://www.w3.org/2000/svg">
<path d="M117.82 156.711H37.0151C11.455 156.711 0 148.438 0 111.705C0 74.9729 1.92342 65.472 1.92342 43.411C1.92342 21.35 9.68121 0 49.1327 0C88.5841 0 203.754 6.70016 229.72 6.70016C255.687 6.70016 264 25.9174 264 52.5241C264 79.1309 263.316 113.364 263.316 126.054C263.316 138.743 253.571 155.095 229.25 155.095C204.93 155.095 168.235 154.276 168.235 154.276C168.235 154.276 168.171 177.91 194.094 197.062C196.189 198.614 195.12 201.974 192.513 201.996C179.69 202.168 151.672 196.976 117.82 156.711Z" fill="#FF8F00"/>
<path d="M83.8943 96.6734H77.6552V107.415H66.9565V96.6734H44.8516V89.0621L67.5568 55.6152H77.6552V88.183H83.8943V96.6948V96.6734ZM66.9565 88.1616V79.3711C66.9565 77.9131 67.0208 75.7905 67.128 73.0033C67.2566 70.2161 67.3424 68.5866 67.4067 68.1578H67.128C66.249 70.0874 65.1984 71.9742 63.9763 73.818L54.4782 88.1616H66.9565Z" fill="white"/>
<path d="M123.88 81.5134C123.88 90.5612 122.4 97.2506 119.441 101.603C116.483 105.955 111.916 108.121 105.741 108.121C99.5663 108.121 95.2568 105.87 92.2123 101.389C89.1678 96.9075 87.667 90.2825 87.667 81.5134C87.667 72.7443 89.1464 65.6262 92.1051 61.2952C95.0639 56.9643 99.6092 54.7988 105.741 54.7988C111.873 54.7988 116.225 57.0715 119.291 61.5954C122.357 66.1407 123.88 72.7658 123.88 81.5134ZM98.5372 81.5134C98.5372 87.8597 99.0947 92.4265 100.188 95.1709C101.282 97.9152 103.125 99.3088 105.741 99.3088C108.357 99.3088 110.136 97.9152 111.273 95.128C112.409 92.3407 112.967 87.7954 112.967 81.5134C112.967 75.2314 112.388 70.6003 111.251 67.8131C110.115 65.0473 108.271 63.6537 105.741 63.6537C103.211 63.6537 101.324 65.0473 100.21 67.8131C99.0947 70.6003 98.5372 75.1456 98.5372 81.5134Z" fill="white"/>
<path d="M166.761 96.6734H160.522V107.415H149.824V96.6734H127.719V89.0621L150.424 55.6152H160.522V88.183H166.761V96.6948V96.6734ZM149.824 88.1616V79.3711C149.824 77.9131 149.888 75.7905 149.995 73.0033C150.124 70.2161 150.21 68.5866 150.274 68.1578H149.995C149.116 70.0874 148.066 71.9742 146.843 73.818L137.345 88.1616H149.824Z" fill="white"/>
<path d="M172.034 102.351C172.034 100.357 172.57 98.8561 173.621 97.8484C174.693 96.8407 176.236 96.3262 178.273 96.3262C180.31 96.3262 181.747 96.8407 182.819 97.8913C183.891 98.9419 184.427 100.421 184.427 102.351C184.427 104.281 183.891 105.696 182.797 106.768C181.704 107.84 180.203 108.376 178.252 108.376C176.301 108.376 174.736 107.84 173.642 106.789C172.549 105.738 172.013 104.259 172.013 102.351H172.034Z" fill="white"/>
<path d="M192.725 102.351C192.725 100.357 193.261 98.8561 194.311 97.8484C195.383 96.8407 196.927 96.3262 198.964 96.3262C201.001 96.3262 202.437 96.8407 203.509 97.8913C204.581 98.9419 205.117 100.421 205.117 102.351C205.117 104.281 204.581 105.696 203.488 106.768C202.394 107.84 200.893 108.376 198.942 108.376C196.991 108.376 195.426 107.84 194.333 106.789C193.239 105.738 192.703 104.259 192.703 102.351H192.725Z" fill="white"/>
<path d="M213.416 102.351C213.416 100.357 213.952 98.8561 215.003 97.8484C216.075 96.8407 217.618 96.3262 219.655 96.3262C221.692 96.3262 223.128 96.8407 224.2 97.8913C225.272 98.9419 225.808 100.421 225.808 102.351C225.808 104.281 225.272 105.696 224.179 106.768C223.086 107.84 221.585 108.376 219.634 108.376C217.683 108.376 216.117 107.84 215.024 106.789C213.931 105.738 213.395 104.259 213.395 102.351H213.416Z" fill="white"/>
<path d="M71.4597 467.229C71.4597 475.377 148.044 482.002 242.532 482.002C337.019 482.002 413.604 475.398 413.604 467.229C413.604 459.061 337.019 452.457 242.532 452.457C148.044 452.457 71.4597 459.061 71.4597 467.229Z" fill="#FFF0B4"/>
<path d="M373.832 264.38C378.957 270.533 380.586 278.423 378.957 285.67C386.375 285.391 393.836 288.414 398.96 294.568C407.708 305.073 406.293 320.682 395.766 329.451C385.26 338.198 369.652 336.783 360.883 326.256C357.967 322.74 356.187 318.666 355.48 314.464L337.684 329.279C334.64 331.809 330.137 331.402 327.586 328.357C325.056 325.313 325.463 320.81 328.508 318.259L346.26 303.487C342.294 302.029 338.628 299.563 335.733 296.068C326.985 285.563 328.401 269.954 338.928 261.185C349.433 252.437 365.042 253.852 373.811 264.38H373.832ZM372.246 316.801C375.784 321.046 382.066 321.625 386.311 318.088C390.556 314.55 391.135 308.268 387.597 304.023C384.059 299.778 377.777 299.199 373.532 302.736C369.287 306.274 368.708 312.556 372.246 316.801ZM347.118 286.613C350.656 290.858 356.938 291.437 361.183 287.9C365.428 284.362 366.007 278.08 362.469 273.835C358.931 269.59 352.649 269.011 348.404 272.548C344.159 276.086 343.58 282.368 347.118 286.613Z" fill="#4CB08A"/>
<path d="M315.406 290.757C318.172 303.878 281.423 345.043 265.6 356.685C249.777 368.306 192.81 381.17 174.307 382.628C155.804 384.086 167.639 338.547 167.639 338.547C167.639 338.547 307.945 255.359 315.406 290.757Z" fill="#CCE8DE"/>
<path d="M220.596 469.862C212.684 431.119 200.442 410.837 195.918 400.824C189.85 387.381 192.445 376.575 204.451 367.871C216.458 359.166 227.928 349.582 252.199 332.623C268.043 321.56 297.759 316.414 316.519 314.184C327.261 312.898 337.81 318.022 343.277 327.349C364.867 364.161 372.843 413.11 379.79 457.684C380.476 462.079 380.862 466.11 381.033 469.883H220.596V469.862Z" fill="#CCE8DE"/>
<path d="M352.239 469.862C352.025 467.482 351.746 465.017 351.338 462.401C344.413 417.826 336.416 368.9 314.826 332.065C309.38 322.782 298.917 317.679 288.24 318.901C298.381 316.628 308.458 315.128 316.519 314.184C327.261 312.898 337.81 318.022 343.277 327.349C364.867 364.161 372.843 413.11 379.79 457.684C380.476 462.079 380.862 466.11 381.033 469.883H352.26L352.239 469.862Z" fill="#E5F4EE"/>
<path d="M43.224 297.571C44.7034 296.242 46.633 295.727 48.4554 295.985C51.0068 292.297 55.2734 287.216 61.7913 282.606C72.5757 274.952 91.8076 267.233 122.188 273.815C123.325 274.051 124.032 275.166 123.797 276.303C123.689 276.753 123.475 277.139 123.153 277.417C122.682 277.846 121.996 278.061 121.309 277.911C98.5399 272.979 78.8577 275.745 64.3855 285.908C58.5323 290.024 54.6088 294.591 52.2075 297.957C52.2503 298 52.3146 298.043 52.3575 298.107C54.7374 300.766 54.523 304.861 51.8644 307.241C49.2058 309.621 45.1107 309.406 42.7309 306.748C40.351 304.089 40.5654 299.994 43.224 297.614V297.571Z" fill="#66BB9B"/>
<path d="M155.698 374.776C166.161 381.509 175.145 389.763 191.932 371.818C208.72 353.872 230.589 322.827 264.143 312.943C297.719 303.059 328.292 299.135 309.854 280.375C291.415 261.615 272.741 240.625 260.112 229.926C247.505 219.227 223.106 210.029 185.179 221.371C147.251 232.692 112.496 271.263 109.687 296.176C105.892 330.031 145.214 368.066 155.677 374.819L155.698 374.776Z" fill="#CCE8DE"/>
<path d="M288.393 294.011C269.954 275.251 251.28 254.261 238.652 243.562C226.045 232.864 201.646 223.666 163.718 235.008C158.422 236.594 153.191 238.717 148.109 241.247C159.301 232.478 172.037 225.295 185.18 221.372C223.107 210.051 247.506 219.228 260.113 229.926C272.72 240.625 291.416 261.615 309.855 280.375C322.44 293.175 312.17 299.071 293.71 304.667C293.346 300.958 291.673 297.356 288.393 294.011Z" fill="#E5F4EE"/>
<path d="M203.575 241.694C231.083 239.207 258.119 275.484 251.366 293.687C244.612 311.868 236.186 304.171 205.183 337.382C174.181 370.593 166.698 373.852 152.033 358.393C137.368 342.935 121.095 331.443 126.755 310.367C132.415 289.27 166.505 245.06 203.575 241.694Z" fill="#E5F4EE"/>
<path d="M126.734 310.366C132.094 290.384 163.011 249.648 197.766 242.572C165.477 252.692 137.711 289.998 132.63 308.844C126.97 329.941 143.243 341.412 157.908 356.87C163.526 362.788 168.092 365.961 173.345 365.747C165.305 369.391 159.623 366.433 152.012 358.393C137.347 342.934 121.074 331.442 126.734 310.366Z" fill="#CCE8DE"/>
<path d="M329.601 341.476C330.78 344.628 333.91 346.686 337.341 346.515C347.332 346.065 367.786 348.23 375.504 371.965C386.868 406.848 337.169 427.645 294.246 424.45L291.18 437.357C291.18 437.357 344.995 441.796 375.89 414.631C406.807 387.466 389.676 345.357 361.161 335.409C351.062 331.871 342.786 331.078 336.869 331.228C331.466 331.357 327.757 336.567 329.601 341.498V341.476Z" fill="#99D2BC"/>
<path d="M194.358 278.143C194.293 279.666 195.494 280.974 197.016 281.038L214.126 281.767C215.648 281.831 216.956 280.631 217.02 279.108C217.084 277.586 215.884 276.278 214.361 276.214L197.252 275.485C195.73 275.421 194.422 276.621 194.358 278.143Z" fill="#66BB9B"/>
<path d="M205.205 289.958C206.727 290.022 208.035 288.821 208.1 287.299L208.829 270.19C208.893 268.668 207.692 267.36 206.17 267.295C204.648 267.231 203.34 268.432 203.276 269.954L202.547 287.063C202.482 288.586 203.683 289.893 205.205 289.958Z" fill="#66BB9B"/>
<path d="M148.111 320.597C148.046 322.119 149.247 323.427 150.769 323.491L167.878 324.22C169.401 324.284 170.709 323.084 170.773 321.561C170.837 320.039 169.637 318.731 168.114 318.667L151.005 317.938C149.483 317.874 148.175 319.074 148.111 320.597Z" fill="#66BB9B"/>
<path d="M158.96 332.411C160.482 332.475 161.79 331.275 161.855 329.752L162.583 312.643C162.648 311.121 161.447 309.813 159.925 309.749C158.403 309.684 157.095 310.885 157.03 312.407L156.301 329.516C156.237 331.039 157.438 332.347 158.96 332.411Z" fill="#66BB9B"/>
<path d="M283.59 392.184L273.556 456.141C272.784 461.222 267.96 464.652 262.9 463.688C257.861 462.723 254.624 457.77 255.76 452.753L269.932 389.59C260.992 384.873 255.782 374.732 257.775 364.291C259.04 357.687 262.921 352.263 268.153 348.896L272.869 349.797L269.825 365.749L280.009 374.968L292.466 370.058L295.51 354.106L300.227 355.007C303.851 360.067 305.48 366.542 304.215 373.145C302.221 383.587 293.645 391.112 283.611 392.206L283.59 392.184ZM264.358 457.449C265.987 457.749 267.552 456.698 267.852 455.069C268.153 453.439 267.102 451.874 265.473 451.574C263.843 451.274 262.299 452.324 261.978 453.954C261.678 455.583 262.728 457.127 264.358 457.449Z" fill="#4CB08A"/>
<path d="M263.35 405.438C263.35 405.438 278.315 408.375 287.492 410.69C300.356 413.949 297.955 441.521 285.541 440.943C269.032 440.171 251.043 432.216 251.043 432.216L253.295 423.94L281.531 429.193V419.824L262.3 412.963L263.372 405.459L263.35 405.438Z" fill="#99D2BC"/>
<path d="M177.825 430.331H181.985C182.714 427.608 183.829 425.056 185.265 422.719L182.242 419.696C181.878 419.332 181.878 418.753 182.242 418.389L191.226 409.405C191.59 409.041 192.169 409.041 192.533 409.405L195.75 412.621C198.044 411.313 200.531 410.327 203.168 409.684V404.988C203.168 404.474 203.575 404.066 204.09 404.066H216.782C217.297 404.066 217.704 404.474 217.704 404.988V409.898C220.234 410.584 222.614 411.613 224.801 412.921L228.339 409.384C228.703 409.019 229.282 409.019 229.647 409.384L238.63 418.367C238.995 418.732 238.995 419.31 238.63 419.675L235.05 423.255C236.336 425.442 237.322 427.822 238.008 430.309H243.025C243.54 430.309 243.947 430.717 243.947 431.231V443.924C243.947 444.438 243.54 444.846 243.025 444.846H238.137C237.494 447.419 236.507 449.863 235.243 452.114L238.609 455.48C238.973 455.845 238.973 456.424 238.609 456.788L229.625 465.772C229.261 466.136 228.682 466.136 228.317 465.772L225.144 462.598C222.85 464.013 220.342 465.107 217.683 465.836V470.188C217.683 470.703 217.276 471.11 216.761 471.11H204.068C203.554 471.11 203.146 470.703 203.146 470.188V466.05C200.381 465.386 197.765 464.314 195.364 462.92L192.512 465.793C192.148 466.157 191.569 466.157 191.204 465.793L182.221 456.809C181.856 456.445 181.856 455.866 182.221 455.502L185.029 452.693C183.593 450.292 182.499 447.654 181.813 444.867H177.804C177.289 444.867 176.882 444.46 176.882 443.945V431.253C176.882 430.738 177.289 430.331 177.804 430.331H177.825ZM225.487 448.426C235.736 430.524 217.361 412.171 199.48 422.419C197.422 423.598 195.707 425.335 194.527 427.372C184.279 445.275 202.632 463.649 220.534 453.379C222.593 452.2 224.308 450.463 225.487 448.426Z" fill="#4CB08A"/>
<path d="M125.618 455.994H163.524V470.016H125.618V455.994Z" fill="#4CB08A"/>
<path d="M144.786 416.756H144.336C140.906 416.756 138.118 419.543 138.118 422.974V458.221H150.982V422.974C150.982 419.543 148.195 416.756 144.765 416.756H144.786Z" fill="#4CB08A"/>
<path d="M138.118 429.901L151.004 425.805V422.396L138.118 426.47V429.901Z" fill="#D1D3D2"/>
<path d="M138.159 441.645L151.023 437.55V434.141L138.159 438.236V441.645Z" fill="#D1D3D2"/>
<path d="M138.118 452.992L151.004 448.897V445.488L138.118 449.562V452.992Z" fill="#D1D3D2"/>
</svg>
